<?xml version="1.0" encoding="UTF-8" standalone="no"?>
<!-- Created with Inkscape (http://www.inkscape.org/) -->

<svg
   xmlns:dc="http://purl.org/dc/elements/1.1/"
   xmlns:cc="http://creativecommons.org/ns#"
   xmlns:rdf="http://www.w3.org/1999/02/22-rdf-syntax-ns#"
   xmlns:svg="http://www.w3.org/2000/svg"
   xmlns="http://www.w3.org/2000/svg"
   xmlns:sodipodi="http://sodipodi.sourceforge.net/DTD/sodipodi-0.dtd"
   xmlns:inkscape="http://www.inkscape.org/namespaces/inkscape"
   width="210mm"
   height="297mm"
   id="svg2"
   version="1.1"
   inkscape:version="0.48.4 r9939"
   sodipodi:docname="Nuevo documento 1">
  <defs
     id="defs4" />
  <sodipodi:namedview
     id="base"
     pagecolor="#ffffff"
     bordercolor="#666666"
     borderopacity="1.0"
     inkscape:pageopacity="0.0"
     inkscape:pageshadow="2"
     inkscape:zoom="1.979899"
     inkscape:cx="392.82341"
     inkscape:cy="896.95673"
     inkscape:document-units="px"
     inkscape:current-layer="layer1"
     showgrid="false"
     inkscape:window-width="1920"
     inkscape:window-height="1056"
     inkscape:window-x="0"
     inkscape:window-y="24"
     inkscape:window-maximized="1" />
  <metadata
     id="metadata7">
    <rdf:RDF>
      <cc:Work
         rdf:about="">
        <dc:format>image/svg+xml</dc:format>
        <dc:type
           rdf:resource="http://purl.org/dc/dcmitype/StillImage" />
        <dc:title></dc:title>
      </cc:Work>
    </rdf:RDF>
  </metadata>
  <g
     inkscape:label="Capa 1"
     inkscape:groupmode="layer"
     id="layer1">
    <path
       style="fill:#c83737"
       d="m 120.86425,166.83975 c 0,-23.77192 -0.29784,-25.59296 -3.99036,-24.39705 -13.24085,4.28832 -21.608506,4.89494 -29.093036,2.10908 -6.77777,-2.52279 -7.915347,-2.53785 -10.466537,-0.13848 -4.137278,3.8911 -14.641554,7.79671 -20.969514,7.79671 -10.21402,0 -13.007821,-4.90399 -13.007821,-22.83273 0,-14.3377 -0.485351,-16.32999 -3.99039,-16.37969 -3.800347,-0.0539 -3.800347,-0.16927 0,-2.42099 2.261986,-1.34025 3.99039,-4.70942 3.99039,-7.77843 0,-4.472468 1.248878,-5.753874 7.180883,-7.36798 3.949528,-1.074654 7.478893,-1.953914 7.843119,-1.953914 0.364192,0 0.980655,3.003427 1.369897,6.674294 0.552433,5.20999 1.583165,6.55954 4.698074,6.1513 2.194704,-0.28763 3.990378,0.31306 3.990378,1.33486 0,1.02182 -2.05219,1.85784 -4.560436,1.85784 -4.223797,0 -4.560424,1.18653 -4.560424,16.07414 0,17.60912 1.918506,20.06415 12.686584,16.23458 4.998762,-1.77777 5.555136,-3.05786 5.555136,-12.78104 0,-6.27432 1.480683,-13.04037 3.531025,-16.13515 4.659434,-7.033 16.069143,-12.27668 26.730692,-12.28493 6.98854,-0.005 9.09145,0.83579 11.22454,4.49 3.88088,6.64837 -2.47814,16.0221 -13.52867,19.94246 -4.71666,1.6733 -8.99898,3.26298 -9.516223,3.5326 -0.517254,0.2696 0.23032,2.49588 1.661264,4.94724 3.878399,6.64413 16.022719,6.1564 26.562399,-1.06674 8.01331,-5.49175 8.06011,-5.60974 8.06011,-20.32642 l 0,-14.802578 7.06602,-1.211384 c 4.06822,-0.697434 8.08535,-0.415706 9.46873,0.664084 1.68351,1.314055 4.09704,0.835167 8.06289,-1.599763 12.83646,-7.881305 26.21135,-2.15741 26.06318,11.153951 -0.14866,13.35365 1.64169,19.18967 5.87779,19.15998 8.01491,-0.0562 10.05481,-2.90509 10.53405,-14.71172 0.38685,-9.52949 1.57509,-12.759057 6.57828,-17.879074 6.55074,-6.703676 19.16767,-11.068188 26.64267,-9.216353 6.43576,1.594352 5.79149,-0.698696 -3.56238,-12.679138 -8.96817,-11.486434 -9.0904,-13.159936 -2.84292,-38.926501 l 3.02078,-12.458674 0.66595,13.793531 c 0.50354,10.429032 1.44925,13.793532 3.87717,13.793532 2.23264,0 3.68284,-3.254135 4.75903,-10.678863 1.99928,-13.793265 5.51923,-13.793265 5.51923,0 0,17.328127 6.21555,11.359676 7.18229,-6.896766 0.31625,-5.971799 0.41133,-6.054559 1.27829,-1.112382 2.04537,11.659966 5.44084,18.688011 9.02878,18.688011 3.09835,0 3.4706,-1.966798 2.5322,-13.379922 -0.60504,-7.358965 -0.75908,-13.113768 -0.34231,-12.788455 1.48724,1.160883 7.68255,28.941535 7.68293,34.451489 2e-4,3.130065 -3.53026,10.488995 -7.98037,16.634234 -7.7047,10.639635 -7.98073,11.66129 -7.98073,29.537861 0,14.32468 0.69436,18.51701 3.06691,18.51701 6.8783,0 10.6142,-6.3086 10.6229,-17.93824 0.0137,-17.200173 9.49322,-27.164748 28.08543,-29.519735 6.64564,-0.841761 9.09893,-0.204928 14.02612,3.640985 7.28422,5.685644 8.7179,5.754775 13.61605,0.656596 2.33642,-2.43184 1.9979,-1.343404 -0.862,2.771452 -2.59018,3.726816 -4.70944,9.559161 -4.70944,12.960787 0,7.621885 -4.6678,16.566455 -10.90937,20.904705 -6.07201,4.22042 -21.38173,5.7937 -29.82253,3.06467 -5.95985,-1.92686 -7.19557,-1.6853 -12.48057,2.43989 -3.22618,2.5182 -6.93854,4.57852 -8.24966,4.57852 -1.31112,0 -2.38384,2.72699 -2.38384,6.05998 0,6.04015 0.0297,6.05685 9.09902,5.10736 5.7404,-0.60098 10.40692,-0.10535 12.64224,1.34266 2.97196,1.92522 4.09921,1.67567 6.99178,-1.54774 3.88548,-4.32995 17.59128,-5.40002 20.72703,-1.61826 1.0146,1.22362 2.35778,7.42312 2.98485,13.7767 0.92357,9.358 1.93064,11.66935 5.30266,12.1701 8.16414,1.21245 10.50945,-4.68704 10.58632,-26.62913 0.0698,-19.94513 0.26083,-20.74458 5.20299,-21.77836 8.26753,-1.72938 8.5508,-1.50122 8.5508,6.88735 0,4.40503 0.44627,8.00915 0.99167,8.00915 0.54542,0 3.6909,-0.80103 6.98995,-1.78007 8.41032,-2.49587 14.10077,0.38189 17.31537,8.75668 3.56721,9.29338 1.09849,18.07261 -6.72772,23.92513 -7.38263,5.5208 -20.24876,7.803 -27.32513,4.84695 -3.96644,-1.65692 -5.63847,-1.37573 -9.43358,1.58653 -6.14844,4.79914 -19.52828,4.89186 -22.77418,0.15789 -1.29826,-1.89345 -2.36045,-8.21507 -2.36045,-14.04808 0,-11.24918 -3.08298,-14.46947 -9.97493,-10.4191 -2.65618,1.56106 -3.74093,5.99863 -4.21201,17.23092 -0.62833,14.98269 -0.69394,15.13374 -6.81052,15.68444 l -6.17607,0.55607 -0.66456,-14.77487 c -0.58335,-12.9691 -1.20353,-14.85531 -5.07428,-15.43302 -7.42533,-1.10827 -10.41169,4.59422 -10.41169,19.88134 l 0,14.13264 -8.67748,-0.90846 c -5.45889,-0.57152 -10.27224,0.002 -12.977,1.54547 -5.68674,3.24569 -14.64073,3.12788 -16.28383,-0.21426 -1.07417,-2.18494 -2.53831,-1.86261 -8.08413,1.77981 -7.42773,4.87842 -15.34949,5.65975 -22.54142,2.22323 -3.94462,-1.88485 -5.01314,-1.73382 -6.99374,0.98858 -3.34162,4.59319 -12.22582,6.82728 -19.07127,4.7958 -5.19798,-1.54255 -5.70054,-2.6242 -5.70054,-12.26904 0,-12.82973 -1.4599,-16.20792 -7.00437,-16.20792 -6.47112,0 -8.95712,5.5922 -8.95712,20.1488 l 0,13.26359 -6.84064,0.78366 -6.84065,0.78367 0,-25.68944 z m 53.98272,9.84267 c 0.99384,-1.22361 1.99368,-5.93786 2.22191,-10.4761 0.22823,-4.53825 1.99252,-10.63253 3.92062,-13.54284 4.10227,-6.19197 14.89153,-10.2302 23.0583,-8.63031 3.32458,0.65131 5.74479,0.36134 5.74479,-0.68828 0,-0.99755 1.58024,-1.81372 3.51167,-1.81372 1.93142,0 7.31841,-3.08862 11.97112,-6.86358 4.65269,-3.77498 9.9986,-7.26944 11.87978,-7.76548 1.88119,-0.49606 2.61919,-1.57013 1.64,-2.38686 -0.97917,-0.81674 -4.72882,-0.12548 -8.33255,1.53614 -7.82517,3.60802 -17.98656,3.82169 -23.60303,0.49629 -3.57285,-2.11539 -4.88169,-1.78051 -10.65562,2.72633 -7.30568,5.70238 -16.92502,6.74353 -24.16912,2.61592 -3.52183,-2.00668 -4.65915,-5.37053 -5.56631,-16.46323 -1.02933,-12.58665 -1.61722,-13.99432 -6.05042,-14.48748 -8.66115,-0.963473 -12.19129,5.71723 -12.19129,23.07164 l 0,15.50406 -6.27058,0.56317 c -4.97746,0.44705 -6.42321,1.60353 -7.01069,5.60799 -0.40706,2.77466 -0.15346,6.23807 0.5635,7.69647 1.14085,2.32057 1.75175,2.30181 4.89335,-0.1504 4.24594,-3.31417 14.89285,-3.69206 18.76944,-0.6662 1.53336,1.19687 2.73627,6.93468 2.73627,13.05193 0,6.00391 0.68406,11.45013 1.52015,12.10272 2.52219,1.9687 9.49116,1.33504 11.41871,-1.03823 z m 30.31098,-3.93477 c 3.52383,-3.31415 5.6387,-15.39298 3.73286,-21.32002 -1.75635,-5.4621 -8.10301,-6.01418 -13.69485,-1.19126 -3.93839,3.39682 -5.70889,19.28501 -2.58824,23.22625 2.15651,2.72353 9.32863,2.31496 12.55023,-0.71497 z m 29.26096,-3.09547 c 1.50494,-1.17468 2.73625,-6.28971 2.73625,-11.36677 0,-8.89985 -0.24585,-9.25913 -6.8536,-10.01613 -3.76951,-0.43183 -7.36083,-0.38925 -7.98076,0.0948 -1.6001,1.24895 -1.40078,17.23686 0.25693,20.60876 1.63751,3.33085 7.97824,3.69469 11.84118,0.6795 z M 349.7135,153.0894 c 4.95796,-3.86991 6.64877,-9.24393 5.02892,-15.98366 -1.72968,-7.19661 -6.36452,-10.49203 -12.58799,-8.95026 -4.10017,1.01577 -4.66986,2.62598 -4.66986,13.19899 0,6.62316 0.68406,12.57606 1.52016,13.22865 2.52988,1.97469 7.07796,1.3403 10.70877,-1.49372 z M 237.2116,138.7456 c 2.84646,-5.84378 2.81291,-6.11348 -0.76073,-6.11348 -5.45543,0 -11.50422,4.68948 -9.99871,7.75177 2.17831,4.43088 8.25378,3.50577 10.75944,-1.63829 z m -104.94627,-3.65134 c 0,-3.48934 -2.99286,-3.0503 -6.1559,0.90304 -2.33685,2.92071 -2.10813,3.2459 1.73171,2.46213 2.43331,-0.49668 4.42419,-2.01101 4.42419,-3.36517 z m -25.24786,-16.05074 c 5.60502,-5.56188 6.17537,-12.78614 1.1288,-14.2977 -5.33908,-1.59917 -10.268895,3.29851 -11.699395,11.62313 -1.530573,8.90698 3.107283,10.08044 10.570595,2.67457 z M 236.49866,114.834 c 4.102,-6.36069 3.75352,-22.245706 -0.56191,-25.6141 -5.4027,-4.217036 -14.18587,-0.263243 -17.00358,7.65427 -2.88497,8.10642 -2.88975,12.95758 -0.0182,18.85202 3.00804,6.17547 13.36507,5.64997 17.58411,-0.89219 z m 66.65552,-7.01994 c 6.40332,-4.99809 8.57919,-15.695397 3.75281,-18.450024 -2.16209,-1.234006 -3.49365,-4.035637 -3.12599,-6.577159 0.49075,-3.392526 -0.52802,-4.558592 -4.35838,-4.988487 -9.58933,-1.076241 -15.73087,16.896758 -9.87897,28.91061 2.65178,5.44409 7.54279,5.8412 13.61053,1.10506 z m 70.81382,29.92315 0,-19.81227 8.71319,0.9122 c 5.01579,0.52513 11.04739,-0.0629 14.21385,-1.38559 6.16175,-2.57399 13.55638,-0.62698 13.55638,3.56939 0,3.95654 -10.85501,11.85206 -16.7349,9.39581 -9.50477,-3.97047 -6.06725,-6.74739 -6.06725,10.23486 0,13.74291 -0.33497,14.77295 -5.13047,15.77605 -2.82177,0.59027 -5.90005,1.08414 -6.84065,1.09751 -0.94059,0.0143 -1.71015,-8.89122 -1.71015,-19.78796 z m 50.1647,11.52391 c -6.38056,-1.90313 -9.12088,-6.60479 -9.11232,-15.63433 0.012,-12.23731 6.055,-19.71472 18.2363,-22.56342 8.55412,-2.00043 9.75521,-1.86225 14.23992,1.63827 4.75693,3.71302 4.78583,4.00627 1.0047,10.1953 -2.53562,4.15038 -6.66783,7.27726 -11.85063,8.96755 -8.88779,2.8986 -10.26723,6.79679 -3.4177,9.65808 3.42697,1.43158 6.25953,1.20233 11.55532,-0.93525 6.72735,-2.71542 6.9206,-2.69335 4.70552,0.53731 -4.61832,6.73564 -16.87459,10.66776 -25.36111,8.13649 z m 14.92503,-22.77745 c 5.93158,-4.62985 6.78801,-7.42556 3.51188,-11.46405 -4.41689,-5.44474 -13.87648,3.00076 -13.87648,12.38892 0,4.65575 3.62996,4.33183 10.3646,-0.92487 z"
       id="path2996"
       inkscape:connector-curvature="0"
       sodipodi:nodetypes="ssssssssssssssssssscsscssscsssscssssscssssssssssssscsssssssssssssssssssssssssssssscssscssssssssssccccscssssssssssssssscsscssscccssssscsscsccsssscssssssssssssscsscccssssssscsssssscsscssssssssssss" />
  </g>
</svg>
